<?xml version="1.0" encoding="UTF-8" standalone="no"?>
<svg
   xmlns:dc="http://purl.org/dc/elements/1.1/"
   xmlns:cc="http://creativecommons.org/ns#"
   xmlns:rdf="http://www.w3.org/1999/02/22-rdf-syntax-ns#"
   xmlns:svg="http://www.w3.org/2000/svg"
   xmlns="http://www.w3.org/2000/svg"
   version="1.1"
   id="svg4155"
   viewBox="0 0 300.00399 349.81198"
   height="98.724716mm"
   width="84.667793mm">
  <defs
     id="defs4157" />
  <metadata
     id="metadata4160">
    <rdf:RDF>
      <cc:Work
         rdf:about="">
        <dc:format>image/svg+xml</dc:format>
        <dc:type
           rdf:resource="http://purl.org/dc/dcmitype/StillImage" />
        <dc:title></dc:title>
      </cc:Work>
    </rdf:RDF>
  </metadata>
  <g
     transform="translate(-172.85514,-211.74192)"
     id="layer1">
    <path
       d="m 210.66514,211.74192 c -6.1606,0 -11.12,4.9596 -11.12,11.12 l 0,30.74 c 0,6.1606 4.9596,11.12 11.12,11.12 6.1606,0 11.12,-4.9596 11.12,-11.12 l 0,-30.74 c 0,-6.1607 -4.9596,-11.12 -11.12,-11.12 z m 56.094,0 c -6.1606,0 -11.12,4.9596 -11.12,11.12 l 0,30.74 c 0,6.1606 4.9596,11.12 11.12,11.12 6.1606,0 11.12,-4.9596 11.12,-11.12 l 0,-30.74 c 0,-6.1607 -4.9596,-11.12 -11.12,-11.12 z m 56.094,0 c -6.1606,0 -11.12,4.9596 -11.12,11.12 l 0,30.74 c 0,6.1606 4.9596,11.12 11.12,11.12 6.1606,0 11.12,-4.9596 11.12,-11.12 l 0,-30.74 c 0,-6.1607 -4.9596,-11.12 -11.12,-11.12 z m 56.094,0 c -6.1606,0 -11.12,4.9596 -11.12,11.12 l 0,30.74 c 0,6.1606 4.9596,11.12 11.12,11.12 6.1606,0 11.12,-4.9596 11.12,-11.12 l 0,-30.74 c 0,-6.1607 -4.9596,-11.12 -11.12,-11.12 z m 56.094,0 c -6.1606,0 -11.12,4.9596 -11.12,11.12 l 0,30.74 c 0,6.1606 4.9596,11.12 11.12,11.12 6.1606,0 11.12,-4.9596 11.12,-11.12 l 0,-30.74 c 0,-6.1607 -4.9596,-11.12 -11.12,-11.12 z m -204.28,27.261 0,14.6 c 0,11.003 -9.0925,20.095 -20.095,20.095 -11.003,0 -20.095,-9.0925 -20.095,-20.095 l 0,-14.541 c -9.9082,0.6007 -17.716,8.8682 -17.716,19.076 l 0,284.28 c 0,10.601 8.4125,19.136 18.862,19.136 l 262.28,0 c 10.449,0 18.862,-8.5344 18.862,-19.136 l 0,-284.28 c 0,-10.208 -7.8076,-18.476 -17.716,-19.076 l 0,14.541 c 0,11.003 -9.0925,20.095 -20.095,20.095 -11.003,0 -20.095,-9.0925 -20.095,-20.095 l 0,-14.6 -15.904,0 0,14.6 c 0,11.003 -9.0925,20.095 -20.095,20.095 -11.003,0 -20.095,-9.0925 -20.095,-20.095 l 0,-14.6 -15.904,0 0,14.6 c 0,11.003 -9.0925,20.095 -20.095,20.095 -11.003,0 -20.095,-9.0925 -20.095,-20.095 l 0,-14.6 -15.904,0 0,14.6 c 0,11.003 -9.0925,20.095 -20.095,20.095 -11.003,0 -20.095,-9.0925 -20.095,-20.095 l 0,-14.6 z m -41.411,70.966 58.338,0 0,50.485 -58.338,0 z m 69.557,0 58.338,0 0,50.485 -58.338,0 z m 69.557,0 58.338,0 0,50.485 -58.338,0 z m 69.557,0 58.338,0 0,50.485 -58.338,0 z m -208.67,61.704 58.338,0 0,50.485 -58.338,0 z m 69.557,0 58.338,0 0,50.485 -58.338,0 z m 69.557,0 58.338,0 0,50.485 -58.338,0 z m 69.557,0 58.338,0 0,50.485 -58.338,0 z m -208.67,61.704 58.338,0 0,50.485 -58.338,0 z m 69.557,0 58.338,0 0,50.485 -58.338,0 z m 139.11,0 58.338,0 0,50.485 -58.338,0 z m -208.67,61.702 18.029,0 29.89,0 10.419,0 0,29.651 0,10.417 0,10.417 -10.419,0 -29.89,0 -7.6121,0 c -5.7713,0 -10.417,-4.6455 -10.417,-10.417 l 0,-29.649 z m 208.67,0 10.419,0 29.89,0 18.029,0 0,10.419 0,29.649 c 0,5.7714 -4.6456,10.417 -10.417,10.417 l -7.6121,0 -29.89,0 -10.419,0 0,-10.417 0,-10.417 z m -139.11,0 58.338,0 0,50.485 -58.338,0 z m 69.557,0 58.338,0 0,50.485 -58.338,0 z"
       style="fill:#ffffff"
       id="rect4218-2" />
  </g>
</svg>
